<mxfile host="app.diagrams.net" modified="2022-09-29T19:54:27.976Z" agent="5.0 (Macintosh; Intel Mac OS X 10_15_7) AppleWebKit/537.36 (KHTML, like Gecko) Chrome/104.0.5112.102 Safari/537.36 OPR/90.0.4480.100" etag="fTjwuYsmxjGfGwoTat7q" version="20.3.7" type="github">
  <diagram id="7Y9bnb7QPnO3Oi14nNSH" name="Page-1">
    <mxGraphModel dx="1032" dy="571" grid="1" gridSize="10" guides="1" tooltips="1" connect="1" arrows="1" fold="1" page="1" pageScale="1" pageWidth="827" pageHeight="1169" math="0" shadow="0">
      <root>
        <mxCell id="0" />
        <mxCell id="1" parent="0" />
        <mxCell id="tTxbSthVE7xuMl5uHUc--1" value="" style="rounded=0;whiteSpace=wrap;html=1;fillColor=#199564;" vertex="1" parent="1">
          <mxGeometry x="230" y="140" width="120" height="100" as="geometry" />
        </mxCell>
        <mxCell id="tTxbSthVE7xuMl5uHUc--5" value="&lt;font style=&quot;font-size: 12px;&quot;&gt;&lt;b&gt;14037&lt;/b&gt;&lt;/font&gt;" style="text;html=1;strokeColor=none;fillColor=none;align=center;verticalAlign=middle;whiteSpace=wrap;rounded=0;" vertex="1" parent="1">
          <mxGeometry x="260" y="175" width="60" height="30" as="geometry" />
        </mxCell>
        <mxCell id="tTxbSthVE7xuMl5uHUc--11" value="" style="rounded=0;whiteSpace=wrap;html=1;fillColor=#B0FFE5;" vertex="1" parent="1">
          <mxGeometry x="350" y="140" width="120" height="100" as="geometry" />
        </mxCell>
        <mxCell id="tTxbSthVE7xuMl5uHUc--12" value="&lt;font style=&quot;font-size: 12px;&quot;&gt;&lt;b&gt;423&lt;/b&gt;&lt;/font&gt;" style="text;html=1;strokeColor=none;fillColor=none;align=center;verticalAlign=middle;whiteSpace=wrap;rounded=0;" vertex="1" parent="1">
          <mxGeometry x="380" y="175" width="60" height="30" as="geometry" />
        </mxCell>
        <mxCell id="tTxbSthVE7xuMl5uHUc--13" value="" style="rounded=0;whiteSpace=wrap;html=1;fillColor=#A3FFE0;" vertex="1" parent="1">
          <mxGeometry x="230" y="240" width="120" height="90" as="geometry" />
        </mxCell>
        <mxCell id="tTxbSthVE7xuMl5uHUc--14" value="&lt;font style=&quot;font-size: 12px;&quot;&gt;&lt;b style=&quot;&quot;&gt;594&lt;/b&gt;&lt;/font&gt;" style="text;html=1;strokeColor=none;fillColor=none;align=center;verticalAlign=middle;whiteSpace=wrap;rounded=0;" vertex="1" parent="1">
          <mxGeometry x="260" y="270" width="60" height="30" as="geometry" />
        </mxCell>
        <mxCell id="tTxbSthVE7xuMl5uHUc--15" value="" style="rounded=0;whiteSpace=wrap;html=1;fillColor=#1DC48B;" vertex="1" parent="1">
          <mxGeometry x="350" y="240" width="120" height="90" as="geometry" />
        </mxCell>
        <mxCell id="tTxbSthVE7xuMl5uHUc--16" value="&lt;font style=&quot;font-size: 12px;&quot;&gt;&lt;b&gt;2766&lt;/b&gt;&lt;/font&gt;" style="text;html=1;strokeColor=none;fillColor=none;align=center;verticalAlign=middle;whiteSpace=wrap;rounded=0;" vertex="1" parent="1">
          <mxGeometry x="380" y="270" width="60" height="30" as="geometry" />
        </mxCell>
        <mxCell id="tTxbSthVE7xuMl5uHUc--17" value="&lt;div style=&quot;text-align: center;&quot;&gt;&lt;span style=&quot;background-color: initial;&quot;&gt;&lt;font style=&quot;font-size: 12px;&quot;&gt;&lt;b style=&quot;&quot;&gt;NREM&lt;/b&gt;&lt;/font&gt;&lt;/span&gt;&lt;/div&gt;" style="text;whiteSpace=wrap;html=1;fontSize=20;" vertex="1" parent="1">
          <mxGeometry x="180" y="175" width="60" height="30" as="geometry" />
        </mxCell>
        <mxCell id="tTxbSthVE7xuMl5uHUc--18" value="&lt;div style=&quot;text-align: center;&quot;&gt;&lt;span style=&quot;background-color: initial;&quot;&gt;&lt;font style=&quot;font-size: 12px;&quot;&gt;&lt;b style=&quot;&quot;&gt;REM&lt;/b&gt;&lt;/font&gt;&lt;/span&gt;&lt;/div&gt;" style="text;whiteSpace=wrap;html=1;fontSize=20;" vertex="1" parent="1">
          <mxGeometry x="185" y="270" width="50" height="35" as="geometry" />
        </mxCell>
        <mxCell id="tTxbSthVE7xuMl5uHUc--19" value="&lt;div style=&quot;text-align: center;&quot;&gt;&lt;span style=&quot;background-color: initial;&quot;&gt;&lt;font style=&quot;font-size: 12px;&quot;&gt;&lt;b style=&quot;&quot;&gt;NREM&lt;/b&gt;&lt;/font&gt;&lt;/span&gt;&lt;/div&gt;" style="text;whiteSpace=wrap;html=1;fontSize=20;" vertex="1" parent="1">
          <mxGeometry x="270" y="330" width="60" height="30" as="geometry" />
        </mxCell>
        <mxCell id="tTxbSthVE7xuMl5uHUc--20" value="&lt;div style=&quot;text-align: center;&quot;&gt;&lt;span style=&quot;background-color: initial;&quot;&gt;&lt;font style=&quot;font-size: 12px;&quot;&gt;&lt;b style=&quot;&quot;&gt;REM&lt;/b&gt;&lt;/font&gt;&lt;/span&gt;&lt;/div&gt;" style="text;whiteSpace=wrap;html=1;fontSize=20;" vertex="1" parent="1">
          <mxGeometry x="400" y="330" width="50" height="30" as="geometry" />
        </mxCell>
        <mxCell id="tTxbSthVE7xuMl5uHUc--22" value="&lt;font style=&quot;font-size: 12px;&quot;&gt;True Class&lt;/font&gt;" style="text;html=1;strokeColor=none;fillColor=none;align=center;verticalAlign=middle;whiteSpace=wrap;rounded=0;fontSize=20;rotation=-90;" vertex="1" parent="1">
          <mxGeometry x="170" y="230" width="100" height="30" as="geometry" />
        </mxCell>
        <mxCell id="tTxbSthVE7xuMl5uHUc--23" value="&lt;font style=&quot;font-size: 12px;&quot;&gt;Predicted Class&lt;/font&gt;" style="text;html=1;strokeColor=none;fillColor=none;align=center;verticalAlign=middle;whiteSpace=wrap;rounded=0;fontSize=20;rotation=0;" vertex="1" parent="1">
          <mxGeometry x="304" y="320" width="110" height="30" as="geometry" />
        </mxCell>
      </root>
    </mxGraphModel>
  </diagram>
</mxfile>
